<svg width="32" height="32" viewBox="0 0 32 32" fill="none" xmlns="http://www.w3.org/2000/svg">
<path d="M12.1996 20.6529C12.5539 20.0627 13.2936 19.847 13.9037 20.1334L14.0245 20.1971L14.1984 20.2918C14.632 20.5072 15.2525 20.6725 15.9999 20.6725C16.8542 20.6725 17.5425 20.4569 17.9755 20.1971C18.6053 19.8192 19.4224 20.0233 19.8004 20.6529C20.1783 21.2828 19.9742 22.0998 19.3445 22.4778C18.4474 23.0161 17.2737 23.3325 15.9999 23.3325C14.8855 23.3325 13.8479 23.0899 13.0049 22.6688L12.6555 22.4778L12.5425 22.4025C12.0024 21.999 11.8453 21.2435 12.1996 20.6529Z" fill="#004D00"/>
<path d="M20.0227 14.67L20.159 14.6765C20.8296 14.7446 21.3527 15.3113 21.3527 16C21.3527 16.6887 20.8296 17.2554 20.159 17.3235L20.0227 17.33H20.0097C19.2751 17.33 18.6797 16.7345 18.6797 16C18.6797 15.2654 19.2751 14.67 20.0097 14.67H20.0227Z" fill="#004D00"/>
<path d="M19.3237 7.34818C19.3237 6.93403 19.1104 6.47185 18.547 6.06623C17.9771 5.65604 17.0969 5.3533 16 5.35318C13.552 5.35859 11.1811 6.20843 9.28639 7.7586C7.39112 9.30927 6.08876 11.4664 5.59902 13.8657C5.51606 14.2714 5.24816 14.615 4.87556 14.7956C4.6507 14.9046 4.46015 15.0749 4.32746 15.2867C4.19479 15.4983 4.12484 15.7434 4.12484 15.9932C4.12484 16.243 4.19479 16.4881 4.32746 16.6997C4.42693 16.8585 4.55888 16.9935 4.71321 17.0972L4.87556 17.1907L5.00804 17.2648C5.30733 17.4547 5.52121 17.7582 5.59641 18.1089C6.10689 20.4891 7.41795 22.6222 9.31106 24.1525C11.2042 25.6826 13.5645 26.5175 15.9987 26.5176C18.4331 26.5176 20.7944 25.6828 22.6877 24.1525C24.5808 22.6222 25.8919 20.4891 26.4024 18.1089L26.4439 17.9609C26.5574 17.6255 26.8008 17.347 27.1232 17.1907C27.348 17.0818 27.5386 16.9114 27.6713 16.6997C27.8039 16.4881 27.8739 16.243 27.8739 15.9932C27.8739 15.7434 27.8039 15.4983 27.6713 15.2867C27.5386 15.0749 27.348 14.9046 27.1232 14.7956C26.7464 14.6129 26.477 14.2638 26.3972 13.8527C26.1188 12.4169 25.5478 11.0535 24.7191 9.84842L25.8153 9.0951L26.9102 8.34048C27.8328 9.68197 28.4983 11.1809 28.8792 12.7604C29.2941 13.0601 29.6506 13.4363 29.9247 13.8734C30.3228 14.5086 30.5339 15.2436 30.5339 15.9932C30.5339 16.7428 30.3228 17.4777 29.9247 18.1129C29.6485 18.5536 29.2879 18.9317 28.8689 19.2324C28.1529 21.9791 26.5759 24.4307 24.3606 26.2214C21.994 28.1345 19.0419 29.1776 15.9987 29.1776C12.9559 29.1775 10.0046 28.1343 7.63817 26.2214C5.42276 24.4307 3.84452 21.9792 3.12863 19.2324C2.70992 18.9318 2.35012 18.5533 2.074 18.1129C1.67591 17.4777 1.46484 16.7428 1.46484 15.9932C1.46484 15.2436 1.67591 14.5086 2.074 13.8734C2.34878 13.4352 2.70605 13.0578 3.12214 12.7578C3.8162 9.98993 5.3852 7.51355 7.60181 5.69996C9.97073 3.76175 12.9353 2.69948 15.9962 2.69318H15.9987L16.2909 2.69838C17.7414 2.7483 19.0775 3.17021 20.1018 3.90759C21.2009 4.69896 21.9837 5.90033 21.9837 7.34818C21.9837 9.66178 20.4454 12.0032 17.9937 12.0032C17.2593 12.0031 16.5021 11.8221 15.8845 11.4291C15.2582 11.0306 14.6687 10.3259 14.6687 9.34318C14.6687 8.60886 15.2646 8.01352 15.9987 8.01318C16.6809 8.01318 17.2416 8.52701 17.3183 9.18862C17.4342 9.26001 17.6705 9.34307 17.9937 9.34318C18.4681 9.34318 19.3237 8.75857 19.3237 7.34818ZM25.0607 7.99889C25.6657 7.58274 26.4939 7.73561 26.9102 8.34048L24.7191 9.84842C24.303 9.24335 24.4558 8.41524 25.0607 7.99889Z" fill="#004D00"/>
<path d="M12.0227 14.67L12.159 14.6765C12.8297 14.7446 13.3527 15.3113 13.3527 16C13.3527 16.6887 12.8297 17.2554 12.159 17.3235L12.0227 17.33H12.0097C11.2752 17.33 10.6797 16.7345 10.6797 16C10.6797 15.2654 11.2752 14.67 12.0097 14.67H12.0227Z" fill="#004D00"/>
</svg>
