<svg width="32" height="32" viewBox="0 0 32 32" fill="none" xmlns="http://www.w3.org/2000/svg">
<path d="M8.6843 4.03C8.1552 4.03 7.64791 4.24033 7.27377 4.61446C6.89964 4.98861 6.6893 5.49589 6.6893 6.025L6.6893 21.7694C7.30702 21.4764 7.98756 21.32 8.6843 21.32L25.3093 21.32L25.3093 4.03L8.6843 4.03ZM6.6893 25.975C6.6893 26.5041 6.89964 27.0113 7.27377 27.3855C7.64791 27.7597 8.1552 27.97 8.6843 27.97L25.3093 27.97V23.98L8.6843 23.98C8.1552 23.98 7.64791 24.1903 7.27377 24.5645C6.89964 24.9387 6.6893 25.4459 6.6893 25.975ZM27.9693 27.97C27.9693 28.6754 27.6888 29.3519 27.1901 29.8507C26.6912 30.3495 26.0147 30.63 25.3093 30.63L8.6843 30.63C7.44971 30.63 6.26605 30.1392 5.39307 29.2662C4.52008 28.3932 4.0293 27.2096 4.0293 25.975L4.0293 6.025C4.0293 4.79041 4.52008 3.60675 5.39307 2.73376C6.26605 1.86078 7.44971 1.37 8.6843 1.37L25.3093 1.37L25.5717 1.38299C26.1808 1.44334 26.7534 1.71267 27.1901 2.1493C27.6888 2.64814 27.9693 3.32452 27.9693 4.03L27.9693 27.97Z" fill="#004D00"/>
</svg>
