<svg width="32" height="32" viewBox="0 0 32 32" fill="none" xmlns="http://www.w3.org/2000/svg">
<path d="M1.36914 16C1.36914 15.3103 1.48312 14.6251 1.70684 13.9726L1.76787 13.8257L3.6291 9.96826L3.68625 9.86305L3.91355 9.52276C4.49523 8.73652 5.44254 8.02002 6.68914 8.02002L15.9991 8.02002C17.1646 8.02002 18.1392 8.46057 18.9072 9.00453L19.2241 9.24222L19.3332 9.34092C19.9453 9.95288 20.6874 10.728 21.2711 11.345C21.5639 11.6546 21.819 11.9271 22.001 12.1217C22.0041 12.125 22.0072 12.1289 22.0101 12.1321C22.0717 12.146 22.1392 12.1621 22.2128 12.1789C22.5894 12.2647 23.1168 12.386 23.7194 12.5283C24.9204 12.8118 26.4371 13.1822 27.66 13.5218C29.2564 13.9371 30.6291 15.4889 30.6291 17.33V21.32C30.6291 22.0212 30.3889 22.7084 29.8732 23.224C29.3575 23.7398 28.6703 23.98 27.9691 23.98H25.3091C24.5746 23.98 23.9791 23.3846 23.9791 22.65C23.9791 21.9155 24.5746 21.32 25.3091 21.32H27.9691V17.33C27.9691 16.8571 27.6098 16.3636 27.173 16.1611L26.982 16.0935C26.9708 16.0907 26.9593 16.0875 26.9482 16.0845C25.7772 15.7592 24.3007 15.3985 23.1076 15.1168C22.5135 14.9766 21.9931 14.856 21.6217 14.7714C21.4364 14.7291 21.2883 14.6954 21.1867 14.6727C21.1357 14.6612 21.0961 14.6526 21.0698 14.6466C21.0567 14.6437 21.0465 14.6416 21.0398 14.6401C21.0372 14.6396 21.0349 14.6392 21.0335 14.6389H21.0308C20.8333 14.595 20.649 14.5064 20.4917 14.3817L20.345 14.2454H20.3437V14.244C20.3429 14.2432 20.3415 14.2418 20.3399 14.2402C20.3367 14.2367 20.3319 14.2314 20.3255 14.2245C20.3129 14.2109 20.294 14.191 20.2696 14.1648C20.2206 14.1121 20.149 14.0347 20.0592 13.9388C19.8798 13.7469 19.6272 13.4791 19.3384 13.1738C18.7759 12.5791 18.0809 11.8518 17.5058 11.2749C17.0049 10.8873 16.5099 10.68 15.9991 10.68L6.68914 10.68C6.52373 10.68 6.24128 10.7995 5.99297 11.1905L4.20449 14.8947C4.08895 15.2518 4.02914 15.6246 4.02914 16L4.02914 21.32H6.68914C7.42367 21.32 8.01914 21.9155 8.01914 22.65C8.01914 23.3846 7.42367 23.98 6.68914 23.98H4.02914C3.3279 23.98 2.64081 23.7398 2.12506 23.224C1.60931 22.7084 1.36914 22.0212 1.36914 21.32L1.36914 16Z" fill="#004D00"/>
<path d="M10.6598 22.67C10.6598 21.9354 10.0644 21.34 9.32984 21.34C8.59531 21.34 7.99984 21.9354 7.99984 22.67C7.99984 23.4046 8.59531 24 9.32984 24C10.0644 24 10.6598 23.4046 10.6598 22.67ZM13.3198 22.67C13.3198 24.8737 11.5335 26.66 9.32984 26.66C7.12623 26.66 5.33984 24.8737 5.33984 22.67C5.33984 20.4663 7.12623 18.68 9.32984 18.68C11.5335 18.68 13.3198 20.4663 13.3198 22.67Z" fill="#004D00"/>
<path d="M19.9897 21.34C20.7242 21.34 21.3197 21.9355 21.3197 22.67C21.3197 23.4046 20.7242 24 19.9897 24L12.0097 24C11.2752 24 10.6797 23.4046 10.6797 22.67C10.6797 21.9355 11.2752 21.34 12.0097 21.34L19.9897 21.34Z" fill="#004D00"/>
<path d="M23.9997 22.67C23.9997 21.9354 23.4042 21.34 22.6697 21.34C21.9351 21.34 21.3397 21.9354 21.3397 22.67C21.3397 23.4046 21.9351 24 22.6697 24C23.4042 24 23.9997 23.4046 23.9997 22.67ZM26.6597 22.67C26.6597 24.8737 24.8734 26.66 22.6697 26.66C20.466 26.66 18.6797 24.8737 18.6797 22.67C18.6797 20.4663 20.466 18.68 22.6697 18.68C24.8734 18.68 26.6597 20.4663 26.6597 22.67Z" fill="#004D00"/>
</svg>
