<svg width="20" height="20" viewBox="0 0 20 20" fill="none" xmlns="http://www.w3.org/2000/svg">
<g opacity="0.8">
<rect width="20" height="20" stroke="white"/>
<g clip-path="url(#clip0_13_8683)">
<path d="M17.4691 5.85012C17.4691 4.01653 15.9827 2.53012 14.1491 2.53012L5.84914 2.53012C4.01555 2.53012 2.52914 4.01653 2.52914 5.85012L2.52914 14.1501C2.52914 15.9837 4.01555 17.4701 5.84914 17.4701L14.1491 17.4701C15.9827 17.4701 17.4691 15.9837 17.4691 14.1501L17.4691 5.85012ZM19.1291 14.1501C19.1291 16.9005 16.8995 19.1301 14.1491 19.1301L5.84914 19.1301C3.09876 19.1301 0.869141 16.9005 0.869141 14.1501L0.869141 5.85012C0.869141 3.09974 3.09876 0.870117 5.84914 0.870117L14.1491 0.870117C16.8995 0.870117 19.1291 3.09974 19.1291 5.85012L19.1291 14.1501Z" fill="#171A1F"/>
<path d="M8.13124 6.27348C8.90595 5.87154 9.7879 5.72399 10.6512 5.852L10.8158 5.88037C11.6333 6.0354 12.3865 6.43305 12.9767 7.02324C13.6063 7.65284 14.0173 8.46795 14.1479 9.34866L14.1682 9.51085C14.256 10.3219 14.1032 11.1424 13.7264 11.8687C13.3245 12.6434 12.688 13.2716 11.9084 13.6641C11.1288 14.0564 10.2452 14.1933 9.38353 14.0548C8.52174 13.9161 7.72556 13.5088 7.10832 12.8916C6.49109 12.2743 6.08387 11.4782 5.9452 10.6164C5.8066 9.7547 5.94349 8.87116 6.33588 8.09154C6.72833 7.31192 7.35649 6.67548 8.13124 6.27348ZM10.4081 7.49417C9.88999 7.41734 9.36045 7.50584 8.89557 7.74705C8.43069 7.98828 8.05384 8.37026 7.81836 8.83805C7.58293 9.30584 7.50093 9.83596 7.58412 10.353C7.66732 10.8701 7.91166 11.3476 8.282 11.7179C8.6523 12.0882 9.12988 12.3326 9.64697 12.4158C10.164 12.499 10.6941 12.417 11.1619 12.1815C11.6297 11.9461 12.0116 11.5692 12.2528 11.1044C12.4639 10.6977 12.5579 10.2417 12.5268 9.78724L12.5057 9.59185C12.4274 9.06348 12.1807 8.57461 11.803 8.19691C11.4726 7.86643 11.057 7.63627 10.6042 7.53145L10.4081 7.49417Z" fill="#171A1F"/>
<path d="M14.5979 4.59009L14.683 4.59414C15.1015 4.63666 15.4279 4.99035 15.4279 5.42009C15.4279 5.84983 15.1015 6.20352 14.683 6.24604L14.5979 6.25009H14.5898C14.1314 6.25009 13.7598 5.87848 13.7598 5.42009C13.7598 4.9617 14.1314 4.59009 14.5898 4.59009H14.5979Z" fill="#171A1F"/>
</g>
</g>
<defs>
<clipPath id="clip0_13_8683">
<rect width="20" height="20" fill="white"/>
</clipPath>
</defs>
</svg>
