<svg width="20" height="20" viewBox="0 0 20 20" fill="none" xmlns="http://www.w3.org/2000/svg">
<g opacity="0.8">
<rect width="20" height="20" stroke="white"/>
<path d="M11.3083 3.02298C12.7334 2.28046 14.5927 2.32673 16.0694 3.49067C16.1416 3.47324 16.2252 3.45108 16.319 3.41934C16.5499 3.34133 16.798 3.23296 17.0332 3.11782C17.2662 3.00368 17.4749 2.88854 17.6256 2.8017C17.7007 2.75849 17.7605 2.72233 17.8008 2.69795C17.8208 2.68578 17.8365 2.67637 17.8462 2.6704C17.8507 2.66754 17.8539 2.66514 17.8559 2.66392H17.8575C18.1541 2.47659 18.537 2.49537 18.8131 2.71173C19.0545 2.90101 19.1688 3.20529 19.1195 3.50121L19.0879 3.62765V3.62927L19.0871 3.6309C19.0865 3.63252 19.0855 3.63492 19.0846 3.63738C19.0829 3.64226 19.081 3.64882 19.0781 3.65684C19.0725 3.6731 19.0649 3.6958 19.0546 3.72411C19.0341 3.78095 19.0037 3.86151 18.9647 3.95998C18.887 4.15642 18.7717 4.42869 18.6202 4.73729C18.3705 5.24597 18.0021 5.88897 17.5162 6.45727C18.5868 15.1095 9.18603 21.3675 1.60764 16.739L1.24208 16.5072C0.931048 16.3011 0.79645 15.912 0.91219 15.5573C1.02802 15.2029 1.36568 14.9691 1.73814 14.9858C2.86761 15.0372 3.98536 14.8026 4.9479 14.3212C1.32816 12.324 -0.264295 7.59957 1.80136 3.79868L1.85567 3.71195C1.99321 3.51969 2.20817 3.39354 2.44655 3.36909C2.71896 3.34129 2.98782 3.45022 3.1647 3.65927C4.63275 5.39405 6.81758 6.48434 9.08087 6.66234C9.09 5.00828 10.0208 3.69379 11.3083 3.02298ZM15.2443 4.96749C14.2732 4.06135 13.019 4.00446 12.0758 4.49575C11.1506 4.97777 10.5222 5.98652 10.8122 7.34077C10.8638 7.58163 10.8061 7.83346 10.6541 8.0273C10.5021 8.22116 10.2714 8.3378 10.0252 8.34503C7.38948 8.42251 4.7595 7.43798 2.80806 5.67104C1.84537 8.80879 3.64676 12.378 6.91915 13.3599C7.20842 13.4467 7.42816 13.684 7.49221 13.9791C7.54821 14.2374 7.47745 14.5046 7.30659 14.7005L7.22716 14.78C6.45425 15.4562 5.53936 15.9517 4.55965 16.2633C10.5445 18.0928 16.8921 13.0098 15.8214 6.31786C15.7795 6.05522 15.866 5.78864 16.054 5.60052C16.2049 5.44964 16.3453 5.27832 16.4771 5.0988C16.2622 5.15173 16.0352 5.1912 15.8108 5.1912C15.6006 5.1912 15.398 5.11093 15.2443 4.96749Z" fill="#171A1F"/>
</g>
</svg>
