<svg width="20" height="20" viewBox="0 0 20 20" fill="none" xmlns="http://www.w3.org/2000/svg">
<g opacity="0.8">
<rect width="20" height="20" stroke="white"/>
<g clip-path="url(#clip0_13_8671)">
<path d="M10.8354 5.85012C10.8354 5.40986 11.0104 4.98776 11.3217 4.67645C11.633 4.36514 12.0552 4.19012 12.4954 4.19012H14.1554V2.53012L12.4954 2.53012C11.6148 2.53012 10.7707 2.88015 10.1481 3.50278C9.5254 4.12539 9.17539 4.96959 9.17539 5.85012L9.17539 8.34012C9.17539 8.79853 8.8038 9.17012 8.34539 9.17012H6.68539L6.68539 10.8301H8.34539C8.8038 10.8301 9.17539 11.2017 9.17539 11.6601V17.4701H10.8354V11.6601C10.8354 11.2017 11.207 10.8301 11.6654 10.8301H13.5077L13.9227 9.17012H11.6654C11.207 9.17012 10.8354 8.79853 10.8354 8.34012L10.8354 5.85012ZM12.4954 7.51012L14.9854 7.51012C15.2409 7.51012 15.4822 7.62802 15.6395 7.82948C15.7967 8.03087 15.8522 8.29326 15.7902 8.54114L14.9602 11.8611C14.8679 12.2307 14.5363 12.4901 14.1554 12.4901H12.4954V18.3001C12.4954 18.7585 12.1238 19.1301 11.6654 19.1301H8.34539C7.887 19.1301 7.51539 18.7585 7.51539 18.3001L7.51539 12.4901H5.85539C5.397 12.4901 5.02539 12.1185 5.02539 11.6601L5.02539 8.34012L5.02944 8.25501C5.07204 7.83658 5.42572 7.51012 5.85539 7.51012L7.51539 7.51012V5.85012C7.51539 4.52934 8.04044 3.26303 8.97436 2.3291C9.90828 1.39517 11.1746 0.870117 12.4954 0.870117L14.9854 0.870117L15.0705 0.874168C15.489 0.916771 15.8154 1.27044 15.8154 1.70012L15.8154 5.02012C15.8154 5.47851 15.4438 5.85012 14.9854 5.85012L12.4954 5.85012L12.4954 7.51012Z" fill="#171A1F"/>
</g>
</g>
<defs>
<clipPath id="clip0_13_8671">
<rect width="20" height="20" fill="white"/>
</clipPath>
</defs>
</svg>
