<svg width="20" height="20" viewBox="0 0 20 20" fill="none" xmlns="http://www.w3.org/2000/svg">
<g opacity="0.8">
<rect width="20" height="20" stroke="white"/>
<path d="M3.99348 3.73691C7.97659 3.16094 12.0218 3.16094 16.005 3.73691L16.8577 3.86903L16.942 3.88767C17.3587 4.00197 17.7388 4.22246 18.0443 4.528C18.3117 4.79547 18.5139 5.12014 18.6369 5.47634L18.6847 5.63035L18.696 5.67817L18.8022 6.21313C19.2975 8.89523 19.2621 11.6502 18.696 14.3219L18.6847 14.3697C18.5704 14.7864 18.3498 15.1665 18.0443 15.472C17.7769 15.7394 17.4521 15.9415 17.096 16.0645L16.942 16.1123L16.8577 16.131C12.6002 16.8364 8.26114 16.8803 3.99348 16.2631L3.14078 16.131C3.11256 16.1263 3.08408 16.1199 3.05649 16.1123C2.6398 15.998 2.25968 15.7775 1.95415 15.472C1.6867 15.2046 1.48462 14.8799 1.36164 14.5236L1.31381 14.3697C1.30951 14.354 1.30584 14.3377 1.30247 14.3219C0.698657 11.4722 0.698657 8.52779 1.30247 5.67817L1.31381 5.63035L1.36164 5.47634C1.48462 5.12014 1.6867 4.79547 1.95415 4.528C2.25968 4.22247 2.6398 4.00197 3.05649 3.88767L3.14078 3.86903L3.99348 3.73691ZM16.5318 5.49823C12.2054 4.7876 7.79219 4.78751 3.46582 5.49823C3.33888 5.53825 3.22301 5.60741 3.12863 5.70168C3.03009 5.80021 2.95779 5.92229 2.9187 6.05588C2.37251 8.65661 2.37262 11.3426 2.9187 13.9433C2.95774 14.0772 3.02991 14.1996 3.12863 14.2984C3.22277 14.3923 3.33846 14.4609 3.46501 14.501C7.79171 15.212 12.2051 15.2118 16.5318 14.501C16.659 14.461 16.7753 14.3927 16.8698 14.2984C16.9685 14.1997 17.0399 14.0771 17.0789 13.9433C17.6251 11.3425 17.6252 8.65669 17.0789 6.05588C17.0399 5.92237 16.9683 5.80015 16.8698 5.70168C16.7753 5.60722 16.6591 5.53821 16.5318 5.49823Z" fill="#171A1F"/>
<path d="M7.93435 6.78792C8.19455 6.64059 8.5144 6.6446 8.77079 6.79845L12.9208 9.28843L13.01 9.35002C13.2067 9.50623 13.3237 9.74502 13.3237 10.0001C13.3237 10.2551 13.2067 10.494 13.01 10.6501L12.9208 10.7118L8.77079 13.2018C8.5144 13.3556 8.19455 13.3597 7.93435 13.2123C7.67433 13.0649 7.51367 12.789 7.51367 12.4901L7.51367 7.51012L7.52097 7.39907C7.55535 7.14411 7.7069 6.91683 7.93435 6.78792ZM9.17367 11.0238L10.8799 10.0001L9.17367 8.97561L9.17367 11.0238Z" fill="#171A1F"/>
</g>
</svg>
