<svg width="20" height="20" viewBox="0 0 20 20" fill="none" xmlns="http://www.w3.org/2000/svg">
<g opacity="0.8">
<rect width="20" height="20" stroke="white"/>
<path d="M17.4795 11.665C17.4795 10.5643 17.042 9.50906 16.2637 8.73076C15.4855 7.95252 14.4302 7.51498 13.3295 7.51498C12.2289 7.51498 11.1736 7.95252 10.3953 8.73076C9.61711 9.50906 9.17953 10.5643 9.17953 11.665L9.17953 16.645H10.8395L10.8395 11.665C10.8395 11.0045 11.1021 10.3714 11.569 9.90447C12.036 9.43751 12.6691 9.17498 13.3295 9.17498C13.99 9.17498 14.6231 9.43751 15.09 9.90447C15.557 10.3714 15.8195 11.0045 15.8195 11.665V16.645H17.4795V11.665ZM19.1395 17.475C19.1395 17.9334 18.7679 18.305 18.3095 18.305H14.9895C14.5311 18.305 14.1595 17.9334 14.1595 17.475L14.1595 11.665C14.1595 11.4449 14.072 11.2338 13.9163 11.0782C13.7607 10.9225 13.5496 10.835 13.3295 10.835C13.1094 10.835 12.8983 10.9225 12.7427 11.0782C12.587 11.2338 12.4995 11.4449 12.4995 11.665L12.4995 17.475C12.4995 17.9334 12.1279 18.305 11.6695 18.305H8.34953C7.89114 18.305 7.51953 17.9334 7.51953 17.475L7.51953 11.665C7.51953 10.1241 8.13128 8.64594 9.22087 7.55631C10.3105 6.46673 11.7886 5.85498 13.3295 5.85498C14.8704 5.85498 16.3486 6.46673 17.4382 7.55631C18.5278 8.64594 19.1395 10.1241 19.1395 11.665L19.1395 17.475Z" fill="#171A1F"/>
<path d="M4.98984 6.69019L5.07495 6.69424C5.49338 6.73684 5.81984 7.09051 5.81984 7.52019L5.81984 17.4802C5.81984 17.9386 5.44824 18.3102 4.98984 18.3102H1.66984C1.21145 18.3102 0.839844 17.9386 0.839844 17.4802L0.839844 7.52019L0.843894 7.43508C0.886498 7.01665 1.24017 6.69019 1.66984 6.69019L4.98984 6.69019ZM2.49984 16.6502H4.15984L4.15984 8.35019H2.49984L2.49984 16.6502Z" fill="#171A1F"/>
<path d="M4.15984 3.33009C4.15984 2.8717 3.78824 2.50009 3.32984 2.50009C2.87145 2.50009 2.49984 2.8717 2.49984 3.33009C2.49984 3.78848 2.87145 4.16009 3.32984 4.16009C3.78824 4.16009 4.15984 3.78848 4.15984 3.33009ZM5.81984 3.33009C5.81984 4.70527 4.70503 5.82009 3.32984 5.82009C1.95466 5.82009 0.839844 4.70527 0.839844 3.33009C0.839844 1.9549 1.95466 0.840088 3.32984 0.840088C4.70503 0.840088 5.81984 1.9549 5.81984 3.33009Z" fill="#171A1F"/>
</g>
</svg>
