<svg width="32" height="32" viewBox="0 0 32 32" fill="none" xmlns="http://www.w3.org/2000/svg">
<mask id="mask0_13_8180" style="mask-type:luminance" maskUnits="userSpaceOnUse" x="0" y="0" width="32" height="32">
<path d="M31.9708 0.0287476L0.0507812 0.0287476L0.0507812 31.9487L31.9708 31.9487L31.9708 0.0287476Z" fill="white"/>
</mask>
<g mask="url(#mask0_13_8180)">
<path d="M12.8809 6.66481C12.8809 6.14077 12.9842 5.62154 13.1848 5.13738C13.3853 4.65335 13.6793 4.21293 14.0498 3.84245C14.4202 3.47208 14.8607 3.17791 15.3447 2.97744C15.8286 2.77712 16.3473 2.67489 16.8709 2.67481C17.3948 2.67481 17.9143 2.777 18.3982 2.97744C18.7514 3.12368 19.08 3.32153 19.3763 3.56061C19.5709 3.14609 19.8333 2.76187 20.1634 2.43192C20.9117 1.68409 21.9265 1.26419 22.9845 1.26428C24.0425 1.26447 25.0574 1.68503 25.8055 2.43323L29.5669 6.19464L29.8305 6.48427C30.079 6.78687 30.2814 7.12532 30.432 7.48826C30.6325 7.97233 30.7357 8.49171 30.7359 9.01569C30.7359 9.53963 30.6336 10.059 30.4333 10.5431C30.2329 11.027 29.9384 11.4663 29.5683 11.8367C29.2409 12.1641 28.8564 12.4263 28.4383 12.6225C29.009 13.3292 29.3266 14.2124 29.3266 15.1293L29.3072 15.5229C29.2166 16.4365 28.8124 17.2954 28.1577 17.9504C27.5029 18.6051 26.6436 19.0091 25.7301 19.0998L25.3353 19.1193C24.4092 19.1192 23.5166 18.7972 22.8065 18.2153L22.5143 17.9504L14.0498 9.48716C13.6793 9.11669 13.3853 8.67626 13.1848 8.19223C12.9842 7.70807 12.8809 7.18885 12.8809 6.66481ZM15.5409 6.66481C15.5409 6.83953 15.5753 7.01254 15.6422 7.17394C15.709 7.33526 15.8071 7.48167 15.9306 7.60516L24.395 16.0696L24.4924 16.1579C24.729 16.3519 25.0266 16.4592 25.3353 16.4593L25.4665 16.4528C25.7712 16.4226 26.0585 16.288 26.277 16.0696C26.4952 15.8514 26.6299 15.5649 26.6601 15.2605L26.6666 15.1293C26.6666 14.7765 26.5264 14.4372 26.277 14.1877L23.9248 11.838C23.4056 11.3187 23.4056 10.4768 23.9248 9.95734C24.4114 9.47047 25.1818 9.43957 25.7042 9.86512L25.8055 9.95734L25.9029 10.0457C26.1395 10.2395 26.4373 10.3457 26.7459 10.3457L26.877 10.3405C27.0068 10.3276 27.1341 10.2945 27.255 10.2444C27.4163 10.1775 27.5627 10.0796 27.6862 9.95604C27.8097 9.83252 27.9077 9.6862 27.9745 9.52483C28.0413 9.36346 28.0759 9.19034 28.0759 9.01569C28.0757 8.84114 28.0414 8.6678 27.9745 8.50655C27.9245 8.38588 27.8571 8.2734 27.7745 8.17275L27.6862 8.07534L23.9248 4.31393C23.6754 4.0645 23.3372 3.92438 22.9845 3.92429C22.6318 3.92422 22.2935 4.06456 22.044 4.31393C21.7947 4.56333 21.6545 4.90152 21.6545 5.25429C21.6545 5.60038 21.7891 5.93234 22.0298 6.18034L22.044 6.19464L22.135 6.29595C22.5607 6.81842 22.5298 7.58858 22.0428 8.07534C21.5558 8.56215 20.7857 8.59242 20.2634 8.16626L20.1621 8.07534L17.8125 5.72315C17.689 5.5996 17.5415 5.50299 17.38 5.43611C17.2187 5.36933 17.0455 5.33481 16.8709 5.33481C16.6962 5.33489 16.5229 5.36932 16.3617 5.43611C16.2006 5.50297 16.0539 5.60106 15.9306 5.72446C15.8071 5.84796 15.709 5.99435 15.6422 6.15567C15.5753 6.31709 15.5409 6.49009 15.5409 6.66481Z" fill="#004D00"/>
</g>
<mask id="mask1_13_8180" style="mask-type:luminance" maskUnits="userSpaceOnUse" x="0" y="0" width="32" height="32">
<path d="M31.9337 0.065979L0.0136719 0.065979L0.0136719 31.986L31.9337 31.986L31.9337 0.065979Z" fill="white"/>
</mask>
<g mask="url(#mask1_13_8180)">
<path d="M4.36172 25.7677C4.88412 25.3413 5.65533 25.3716 6.14242 25.8587C6.62902 26.3456 6.65911 27.1158 6.23334 27.6381L6.14242 27.7394L4.2799 29.6018C3.76056 30.1209 2.91852 30.1209 2.39918 29.6018C1.87987 29.0826 1.88005 28.2406 2.39918 27.7212L4.2617 25.8587L4.36172 25.7677Z" fill="#004D00"/>
</g>
<mask id="mask2_13_8180" style="mask-type:luminance" maskUnits="userSpaceOnUse" x="0" y="0" width="32" height="32">
<path d="M31.9864 0.0139771L0.0664062 0.0139771L0.0664062 31.934L31.9864 31.934L31.9864 0.0139771Z" fill="white"/>
</mask>
<g mask="url(#mask2_13_8180)">
<path d="M27.8208 2.30766C28.3431 1.88119 29.1143 1.9115 29.6014 2.39858C30.088 2.88545 30.1181 3.65568 29.6923 4.17797L29.6014 4.27929L27.7388 6.14181C27.2196 6.66085 26.3775 6.66085 25.8582 6.14181C25.3389 5.6225 25.339 4.78051 25.8582 4.2611L27.7208 2.39858L27.8208 2.30766Z" fill="#004D00"/>
</g>
<mask id="mask3_13_8180" style="mask-type:luminance" maskUnits="userSpaceOnUse" x="0" y="0" width="32" height="32">
<path d="M31.9493 0.0511475L0.0292969 0.0511475L0.0292969 31.9711L31.9493 31.9711L31.9493 0.0511475Z" fill="white"/>
</mask>
<g mask="url(#mask3_13_8180)">
<path d="M1.26563 22.9841C1.26553 21.9262 1.68543 20.9113 2.43327 20.163C2.76321 19.8329 3.14744 19.5705 3.56196 19.3759C3.32288 19.0796 3.12503 18.751 2.97878 18.398C2.82847 18.0349 2.73275 17.6522 2.69433 17.2627L2.67615 16.8705C2.67623 16.3468 2.77847 15.8281 2.97878 15.3444C3.17925 14.8604 3.47342 14.4199 3.8438 14.0494C4.21427 13.679 4.6547 13.3849 5.13872 13.1844C5.62288 12.9839 6.14212 12.8805 6.66615 12.8805L7.05839 12.9C7.4479 12.9384 7.83066 13.0341 8.19357 13.1844C8.6776 13.3849 9.11803 13.679 9.4885 14.0494L17.9517 22.5139L18.2167 22.8061C18.7985 23.5162 19.1205 24.4089 19.1207 25.335L19.1011 25.7299C19.0104 26.6432 18.6065 27.5025 17.9517 28.1572C17.2967 28.812 16.4378 29.2162 15.5242 29.3068L15.1307 29.3263C14.2138 29.3263 13.3305 29.0087 12.6239 28.4379C12.4276 28.856 12.1655 29.2405 11.8381 29.5678C11.4676 29.938 11.0283 30.2324 10.5445 30.4329C10.1812 30.5833 9.79781 30.6777 9.40798 30.716L9.01703 30.7355C8.09103 30.7353 7.19815 30.4135 6.48821 29.8314L6.19598 29.5665L2.43457 25.8051C1.68638 25.057 1.26581 24.0421 1.26563 22.9841ZM5.34264 17.0017C5.35546 17.1314 5.38739 17.2587 5.43746 17.3796C5.50433 17.5411 5.60224 17.6885 5.7258 17.8121L8.07668 20.1617L8.1676 20.263C8.59376 20.7853 8.56349 21.5554 8.07668 22.0424C7.55749 22.5618 6.71551 22.5627 6.19598 22.0438L6.18168 22.0294C5.93368 21.7888 5.60172 21.6541 5.25563 21.6541C4.90286 21.6541 4.56467 21.7943 4.31527 22.0438C4.06591 22.2931 3.92557 22.6314 3.92563 22.9841C3.92572 23.3368 4.06584 23.675 4.31527 23.9244L8.07668 27.6859L8.17409 27.7742C8.4107 27.9683 8.70835 28.0753 9.01703 28.0755L9.14821 28.0689C9.27798 28.0562 9.40526 28.0242 9.52617 27.9742C9.68754 27.9073 9.83386 27.8093 9.95738 27.6859C10.0809 27.5623 10.1789 27.4159 10.2457 27.2546C10.3126 27.0932 10.347 26.9202 10.347 26.7455L10.3418 26.6156C10.3291 26.4856 10.2972 26.3575 10.247 26.2363C10.1969 26.1154 10.1284 26.0033 10.0457 25.9025L9.95868 25.8051C9.43947 25.2856 9.43921 24.4438 9.95868 23.9244C10.4457 23.4377 11.2158 23.4075 11.7381 23.8335L11.8394 23.9244L14.1902 26.2766C14.4397 26.5261 14.7778 26.6663 15.1307 26.6663L15.2618 26.6598C15.5662 26.6296 15.8527 26.4947 16.071 26.2766C16.2894 26.0581 16.424 25.771 16.4542 25.4661L16.4607 25.335C16.4605 25.0263 16.3532 24.7288 16.1593 24.492L16.071 24.3945L7.6065 15.9302C7.48301 15.8067 7.3366 15.7086 7.17529 15.6418C7.05442 15.5917 6.92706 15.5599 6.79733 15.547L6.66615 15.5405C6.49143 15.5405 6.31843 15.5749 6.15701 15.6418C5.9957 15.7086 5.8493 15.8067 5.7258 15.9302C5.6024 16.0536 5.50431 16.2001 5.43746 16.3613C5.37066 16.5227 5.33623 16.696 5.33615 16.8705L5.34264 17.0017Z" fill="#004D00"/>
</g>
<mask id="mask4_13_8180" style="mask-type:luminance" maskUnits="userSpaceOnUse" x="0" y="0" width="32" height="32">
<path d="M31.9591 0.039978L0.0390625 0.039978L0.0390625 31.96L31.9591 31.96L31.9591 0.039978Z" fill="white"/>
</mask>
<g mask="url(#mask4_13_8180)">
<path d="M18.2498 11.8676C18.7692 11.3482 19.6111 11.3483 20.1304 11.8676C20.6499 12.387 20.6499 13.2289 20.1304 13.7483L13.7467 20.132C13.2273 20.6514 12.3854 20.6514 11.866 20.132C11.3468 19.6126 11.3467 18.7706 11.866 18.2512L18.2498 11.8676Z" fill="#004D00"/>
</g>
</svg>
