<svg width="32" height="32" viewBox="0 0 32 32" fill="none" xmlns="http://www.w3.org/2000/svg">
<path d="M12.0099 10.6801L12.0099 2.70006C12.0099 1.96572 12.6056 1.37039 13.3399 1.37006C14.0744 1.37006 14.6698 1.96552 14.6698 2.70006L14.6698 10.6801L14.6633 10.9294C14.6322 11.4289 14.5065 11.9178 14.2945 12.3711L14.1815 12.5945L6.85354 26.001C6.7427 26.2036 6.6859 26.4326 6.68989 26.6635C6.69394 26.8941 6.75805 27.1197 6.87562 27.3181C6.99335 27.5167 7.1608 27.6817 7.36138 27.796C7.56194 27.9102 7.78909 27.9701 8.01989 27.9701L23.9812 27.9701L24.1526 27.9584C24.3234 27.9361 24.4891 27.8817 24.6397 27.796C24.8402 27.6817 25.0077 27.5167 25.1255 27.3181C25.2429 27.1197 25.3072 26.8941 25.3112 26.6635C25.3142 26.4903 25.2826 26.3186 25.2202 26.1582L25.1476 26.001L17.8196 12.5945C17.5387 12.0805 17.374 11.5121 17.3377 10.9294L17.3298 10.6801V2.70006C17.3298 1.96572 17.9257 1.37039 18.6598 1.37006C19.3944 1.37006 19.9898 1.96552 19.9898 2.70006V10.6801L20.0002 10.8476C20.0211 11.0125 20.0734 11.1724 20.1536 11.3191L27.4803 24.7243C27.8128 25.332 27.9818 26.0163 27.9698 26.709C27.9579 27.4015 27.766 28.0795 27.4127 28.6754C27.0595 29.2709 26.5571 29.764 25.9554 30.1066C25.4287 30.4065 24.8421 30.5831 24.2396 30.6222L23.9798 30.6301L8.01989 30.6301C7.32749 30.6301 6.64734 30.4493 6.04566 30.1066C5.4439 29.764 4.94164 29.2709 4.58838 28.6754C4.23511 28.0795 4.04185 27.4015 4.02989 26.709C4.01795 26.0163 4.18705 25.332 4.51954 24.7243L11.8475 11.3191L11.9177 11.1684C11.9583 11.0653 11.9856 10.9576 11.9995 10.8476L12.0099 10.6801Z" fill="#004D00"/>
<path d="M23.3777 18.67L23.514 18.6766C24.1846 18.7447 24.7077 19.3114 24.7077 20C24.7077 20.6887 24.1846 21.2554 23.514 21.3235L23.3777 21.33L8.62297 21.33C7.88844 21.33 7.29297 20.7346 7.29297 20C7.29297 19.2655 7.88844 18.67 8.62297 18.67L23.3777 18.67Z" fill="#004D00"/>
<path d="M20.6556 1.34003C21.3902 1.34003 21.9856 1.93549 21.9856 2.67003C21.9856 3.40456 21.3902 4.00003 20.6556 4.00003L11.3456 4.00003C10.6111 4.00003 10.0156 3.40456 10.0156 2.67003C10.0156 1.93549 10.6111 1.34003 11.3456 1.34003L20.6556 1.34003Z" fill="#004D00"/>
</svg>
