<svg width="32" height="32" viewBox="0 0 32 32" fill="none" xmlns="http://www.w3.org/2000/svg">
<path d="M18.6597 16C18.6597 14.5309 17.4688 13.34 15.9997 13.34C14.5306 13.34 13.3397 14.5309 13.3397 16C13.3397 17.4691 14.5306 18.66 15.9997 18.66C17.4688 18.66 18.6597 17.4691 18.6597 16ZM21.3197 16C21.3197 18.9381 18.9378 21.32 15.9997 21.32C13.0615 21.32 10.6797 18.9381 10.6797 16C10.6797 13.0618 13.0615 10.68 15.9997 10.68C18.9378 10.68 21.3197 13.0618 21.3197 16Z" fill="#004D00"/>
<path d="M19.1853 3.25719C20.522 2.70359 21.9928 2.55802 23.4118 2.84026C24.8306 3.12254 26.1332 3.8201 27.1563 4.84305C28.1792 5.86601 28.8768 7.16871 29.159 8.58758C29.4413 10.0065 29.2957 11.4774 28.7422 12.814C28.2102 14.0983 27.3231 15.2024 26.1874 16C27.3231 16.7976 28.2102 17.9016 28.7422 19.186C29.2957 20.5226 29.4413 21.9935 29.159 23.4125C28.8768 24.8313 28.1792 26.1339 27.1563 27.1569C26.1332 28.1798 24.8306 28.8774 23.4118 29.1597C21.9928 29.442 20.522 29.2964 19.1853 28.7428C17.9009 28.2108 16.7969 27.3237 15.9993 26.188C15.2017 27.3237 14.0977 28.2108 12.8133 28.7428C11.4767 29.2964 10.0058 29.442 8.58691 29.1597C7.16803 28.8774 5.86534 28.1798 4.84238 27.1569C3.81943 26.1339 3.12187 24.8313 2.83959 23.4125C2.55735 21.9935 2.70292 20.5226 3.25652 19.186C3.78837 17.902 4.67466 16.7976 5.81001 16C4.67466 15.2025 3.78837 14.0979 3.25652 12.814C2.70292 11.4774 2.55735 10.0065 2.83959 8.58758C3.12187 7.16871 3.81943 5.86601 4.84238 4.84305C5.86534 3.8201 7.16803 3.12254 8.58691 2.84026C10.0058 2.55802 11.4767 2.70359 12.8133 3.25719C14.0973 3.78904 15.2018 4.67533 15.9993 5.81068C16.7969 4.67533 17.9013 3.78904 19.1853 3.25719ZM14.6693 10.015L14.6563 9.67079C14.5971 8.8714 14.3323 8.09876 13.8849 7.42903C13.3735 6.66369 12.6467 6.06692 11.7963 5.71456C10.9458 5.36227 10.0094 5.27005 9.10644 5.4496C8.20345 5.62922 7.3741 6.07275 6.72308 6.72375C6.07207 7.37478 5.62855 8.20412 5.44893 9.10711C5.26938 10.01 5.3616 10.9465 5.71389 11.797C6.06625 12.6473 6.66302 13.3742 7.42835 13.8855C8.19382 14.3969 9.0937 14.67 10.0143 14.67C10.7489 14.67 11.3443 15.2654 11.3443 16C11.3443 16.7345 10.7489 17.33 10.0143 17.33C9.0937 17.33 8.19382 17.603 7.42835 18.1145C6.66302 18.6259 6.06625 19.3526 5.71389 20.203C5.3616 21.0536 5.26938 21.9899 5.44893 22.8928C5.62855 23.7959 6.07207 24.6252 6.72308 25.2762C7.3741 25.9272 8.20345 26.3708 9.10644 26.5503C10.0094 26.7299 10.9458 26.6377 11.7963 26.2854C12.6467 25.9331 13.3735 25.3363 13.8849 24.5709C14.3963 23.8055 14.6693 22.9056 14.6693 21.985C14.6693 21.2504 15.2647 20.655 15.9993 20.655C16.6878 20.655 17.2546 21.1781 17.3228 21.8486L17.3293 21.985L17.3423 22.3292C17.4015 23.1286 17.6663 23.9012 18.1139 24.5709C18.6253 25.3363 19.352 25.9331 20.2024 26.2854C21.0529 26.6377 21.9892 26.7299 22.8922 26.5503C23.7952 26.3708 24.6245 25.9272 25.2755 25.2762C25.9266 24.6252 26.3701 23.7959 26.5497 22.8928C26.7292 21.9899 26.637 21.0536 26.2847 20.203C25.9324 19.3526 25.3356 18.6259 24.5702 18.1145C23.9006 17.667 23.128 17.4022 22.3285 17.343L21.9843 17.33L21.848 17.3235C21.1774 17.2552 20.6543 16.6885 20.6543 16C20.6543 15.2654 21.2497 14.67 21.9843 14.67L22.3285 14.6569C23.128 14.5978 23.9006 14.333 24.5702 13.8855C25.3356 13.3742 25.9324 12.6473 26.2847 11.797C26.637 10.9465 26.7292 10.01 26.5497 9.10711C26.3701 8.20412 25.9266 7.37478 25.2755 6.72375C24.6245 6.07275 23.7952 5.62922 22.8922 5.4496C21.9892 5.27005 21.0529 5.36227 20.2024 5.71456C19.352 6.06692 18.6253 6.66369 18.1139 7.42903C17.6024 8.19449 17.3293 9.09437 17.3293 10.015L17.3228 10.1514C17.2546 10.8219 16.6878 11.345 15.9993 11.345C15.3108 11.345 14.744 10.8219 14.6758 10.1514L14.6693 10.015Z" fill="#004D00"/>
<path d="M14.6699 11.9975V10.0025C14.6699 9.26795 15.2654 8.67249 15.9999 8.67249C16.7345 8.67249 17.3299 9.26795 17.3299 10.0025V11.9975C17.3299 12.732 16.7345 13.3275 15.9999 13.3275C15.2654 13.3275 14.6699 12.732 14.6699 11.9975Z" fill="#004D00"/>
<path d="M11.9969 14.67C12.7314 14.67 13.3269 15.2654 13.3269 16C13.3269 16.7345 12.7314 17.33 11.9969 17.33H10.0019C9.26734 17.33 8.67188 16.7345 8.67188 16C8.67188 15.2654 9.26734 14.67 10.0019 14.67H11.9969Z" fill="#004D00"/>
<path d="M21.9969 14.67C22.7314 14.67 23.3269 15.2654 23.3269 16C23.3269 16.7345 22.7314 17.33 21.9969 17.33H20.0019C19.2673 17.33 18.6719 16.7345 18.6719 16C18.6719 15.2654 19.2673 14.67 20.0019 14.67H21.9969Z" fill="#004D00"/>
<path d="M14.6699 21.9975V20.0025C14.6699 19.2679 15.2654 18.6725 15.9999 18.6725C16.7345 18.6725 17.3299 19.2679 17.3299 20.0025V21.9975C17.3299 22.732 16.7345 23.3275 15.9999 23.3275C15.2654 23.3275 14.6699 22.732 14.6699 21.9975Z" fill="#004D00"/>
<path d="M9.72918 9.72943C10.2161 9.24249 10.9862 9.21244 11.5086 9.63851L11.6099 9.72943L14.1101 12.2297L14.2011 12.331C14.6272 12.8534 14.5971 13.6234 14.1101 14.1103C13.6232 14.5974 12.8531 14.6274 12.3307 14.2013L12.2294 14.1103L9.72918 11.6101L9.63826 11.5088C9.2122 10.9864 9.24224 10.2164 9.72918 9.72943Z" fill="#004D00"/>
<path d="M20.3898 9.72942C20.9092 9.21004 21.751 9.21009 22.2704 9.72942C22.7899 10.2488 22.7899 11.0907 22.2704 11.6101L19.7701 14.1104C19.2508 14.6297 18.4089 14.6297 17.8895 14.1104C17.3702 13.591 17.3702 12.749 17.8895 12.2297L20.3898 9.72942Z" fill="#004D00"/>
<path d="M12.2296 17.8895C12.749 17.3701 13.5909 17.3701 14.1103 17.8895C14.6297 18.4088 14.6297 19.2507 14.1103 19.7701L11.6101 22.2703C11.0907 22.7898 10.2487 22.7898 9.72936 22.2703C9.21003 21.751 9.20998 20.9091 9.72936 20.3897L12.2296 17.8895Z" fill="#004D00"/>
<path d="M17.8893 17.8895C18.3762 17.4025 19.1463 17.3725 19.6687 17.7985L19.77 17.8895L22.2702 20.3897L22.3612 20.4909C22.7873 21.0134 22.7573 21.7834 22.2702 22.2703C21.7833 22.7574 21.0132 22.7874 20.4908 22.3613L20.3896 22.2703L17.8893 19.7701L17.7984 19.6689C17.3724 19.1464 17.4024 18.3764 17.8893 17.8895Z" fill="#004D00"/>
</svg>
