<svg width="32" height="32" viewBox="0 0 32 32" fill="none" xmlns="http://www.w3.org/2000/svg">
<path d="M18.6597 27.985L18.6597 17.345H13.3397L13.3397 27.985C13.3397 28.7196 12.7442 29.315 12.0097 29.315C11.2752 29.315 10.6797 28.7196 10.6797 27.985L10.6797 17.345C10.6797 16.6396 10.9601 15.9631 11.459 15.4642C11.9578 14.9655 12.6342 14.685 13.3397 14.685L18.6597 14.685C19.3651 14.685 20.0416 14.9655 20.5404 15.4642C21.0392 15.9631 21.3197 16.6396 21.3197 17.345L21.3197 27.985C21.3197 28.7196 20.7242 29.315 19.9897 29.315C19.2551 29.315 18.6597 28.7196 18.6597 27.985Z" fill="#004D00"/>
<path d="M26.6392 13.3344L26.6314 13.1902C26.6158 13.0467 26.5768 12.9062 26.5158 12.7746C26.4344 12.5992 26.3155 12.4436 26.1677 12.3187L26.1612 12.3122L16.8577 4.33874C16.6476 4.16113 16.3884 4.05493 16.1161 4.03092L15.9992 4.02572C15.6849 4.02572 15.3808 4.13715 15.1407 4.34004L15.1394 4.33874L5.83719 12.3122L5.83069 12.3187C5.68297 12.4436 5.56403 12.5992 5.4826 12.7746C5.40125 12.95 5.35922 13.1411 5.35922 13.3344L5.35922 25.3045C5.35922 25.6572 5.49944 25.9966 5.74887 26.2461C5.99826 26.4953 6.33665 26.6345 6.68922 26.6345L25.3092 26.6345C25.6618 26.6345 26.0002 26.4953 26.2495 26.2461C26.499 25.9966 26.6392 25.6572 26.6392 25.3045L26.6392 13.3344ZM29.2992 25.3045C29.2992 26.3626 28.8785 27.3785 28.1303 28.1267C27.382 28.8748 26.3672 29.2945 25.3092 29.2945L6.68922 29.2945C5.63116 29.2945 4.6164 28.8748 3.86817 28.1267C3.1199 27.3785 2.69922 26.3626 2.69922 25.3045L2.69922 13.3344C2.69922 12.7544 2.82529 12.1812 3.06938 11.655C3.31364 11.1286 3.67045 10.662 4.11365 10.2874L13.4172 2.31387L13.4237 2.30867L13.7028 2.09306C14.3728 1.62153 15.1744 1.36572 15.9992 1.36572L16.3511 1.38131C17.0506 1.44323 17.7213 1.68893 18.2956 2.09306L18.5748 2.30867L18.5813 2.31387L27.8848 10.2874L28.0472 10.4315C28.4156 10.7791 28.7154 11.1944 28.9291 11.655C29.1731 12.1812 29.2992 12.7544 29.2992 13.3344L29.2992 25.3045Z" fill="#004D00"/>
</svg>
