<svg width="22" height="22" viewBox="0 0 22 22" fill="none" xmlns="http://www.w3.org/2000/svg">
<g clip-path="url(#clip0_13_8695)">
<path d="M11.0008 0.881912C11.4837 0.881912 11.9577 1.00952 12.3763 1.25027L12.3772 1.24937L18.8172 4.92937L18.8208 4.93207L18.9744 5.02729C19.3252 5.26177 19.6187 5.57432 19.8307 5.94101C20.0727 6.35995 20.2003 6.83536 20.2008 7.31922L20.2008 14.681C20.2003 15.1649 20.0727 15.6403 19.8307 16.0592C19.5884 16.4782 19.2399 16.8262 18.8208 17.0681L18.8172 17.0709L12.3772 20.7509L12.3763 20.75C11.9577 20.9906 11.4837 21.1183 11.0008 21.1183C10.5176 21.1183 10.0432 20.9909 9.62437 20.75V20.7509L3.18438 17.0709L3.18078 17.0681C2.76167 16.8262 2.41313 16.4782 2.17093 16.0592C1.95903 15.6926 1.83512 15.2826 1.80707 14.8616L1.80078 14.681L1.80078 7.31922L1.80707 7.13773C1.83521 6.71704 1.9592 6.30747 2.17093 5.94101C2.41312 5.52203 2.7617 5.17406 3.18078 4.93207L3.18438 4.92937L9.62437 1.24937C10.0432 1.00837 10.5176 0.881912 11.0008 0.881912ZM11.0008 2.72191C10.8393 2.72191 10.6806 2.76428 10.5408 2.84499L10.5372 2.84679L4.09988 6.5241L4.10078 6.52499C3.96106 6.60566 3.84461 6.72223 3.76387 6.86191C3.68331 7.00147 3.64095 7.15986 3.64078 7.32101L3.64078 14.6792L3.64887 14.7996C3.66471 14.9186 3.70348 15.0337 3.76387 15.1383C3.84389 15.2767 3.95912 15.392 4.09718 15.4726L10.5372 19.1526L10.5408 19.1552L10.6486 19.2082C10.7598 19.2543 10.8795 19.2783 11.0008 19.2783C11.1622 19.2783 11.3209 19.2359 11.4608 19.1552L11.4644 19.1526L17.9044 15.4726C18.0425 15.392 18.1576 15.2767 18.2377 15.1383C18.3181 14.9991 18.3604 14.841 18.3608 14.6801L18.3608 7.32101L18.3527 7.20062C18.3369 7.08167 18.298 6.9665 18.2377 6.86191C18.157 6.72223 18.0405 6.60566 17.9008 6.52499L11.4644 2.84679L11.4608 2.84499C11.3209 2.76428 11.1622 2.72191 11.0008 2.72191Z" fill="white"/>
<path d="M10.0801 20.18L10.0801 10.98C10.0801 10.4719 10.492 10.06 11.0001 10.06C11.5082 10.06 11.9201 10.4719 11.9201 10.98L11.9201 20.18C11.9201 20.6881 11.5082 21.1 11.0001 21.1C10.492 21.1 10.0801 20.6881 10.0801 20.18Z" fill="white"/>
<path d="M18.5566 5.61214C18.9972 5.35922 19.5596 5.51124 19.8126 5.95175C20.0655 6.39237 19.9135 6.95478 19.473 7.20777L11.4598 11.8077C11.2117 11.9501 10.9136 11.9684 10.653 11.8616L10.5434 11.8077L2.53022 7.20777L2.45115 7.15655C2.07242 6.8847 1.9535 6.3648 2.19061 5.95175C2.42773 5.53889 2.93652 5.37922 3.36218 5.56902L3.44663 5.61214L11.0015 9.94887L18.5566 5.61214Z" fill="white"/>
<path d="M6.06299 3.43906C6.29962 3.02576 6.80857 2.86593 7.23455 3.05543L7.319 3.09765L15.599 7.83601L15.6781 7.88632C16.0573 8.15756 16.1768 8.67769 15.9404 9.09112C15.7039 9.50453 15.1949 9.66507 14.7689 9.47565L14.6844 9.4325L6.40439 4.69507L6.32534 4.64386C5.94622 4.37253 5.82645 3.85243 6.06299 3.43906Z" fill="white"/>
</g>
<defs>
<clipPath id="clip0_13_8695">
<rect width="22" height="22" fill="white"/>
</clipPath>
</defs>
</svg>
