<svg width="16" height="16" viewBox="0 0 16 16" fill="none" xmlns="http://www.w3.org/2000/svg">
<path d="M10.6239 10.6224C10.8691 10.3771 11.2571 10.362 11.5202 10.5766L11.5713 10.6224L14.479 13.5301L14.5255 13.5811C14.7399 13.8443 14.7242 14.2323 14.479 14.4775C14.2337 14.7227 13.8457 14.7384 13.5826 14.524L13.5316 14.4775L10.6239 11.5699L10.5781 11.5188C10.3634 11.2556 10.3786 10.8677 10.6239 10.6224Z" fill="#004D00"/>
<path d="M12.0208 7.33C12.0208 4.73979 9.921 2.64 7.33078 2.64C4.74057 2.64 2.64078 4.73979 2.64078 7.33C2.64078 9.92022 4.74057 12.02 7.33078 12.02C9.921 12.02 12.0208 9.92022 12.0208 7.33ZM13.3608 7.33C13.3608 10.6603 10.6611 13.36 7.33078 13.36C4.00051 13.36 1.30078 10.6603 1.30078 7.33C1.30078 3.99972 4.00051 1.3 7.33078 1.3C10.6611 1.3 13.3608 3.99972 13.3608 7.33Z" fill="#004D00"/>
</svg>
