<svg width="32" height="32" viewBox="0 0 32 32" fill="none" xmlns="http://www.w3.org/2000/svg">
<path d="M22.6504 13.34C22.6504 12.6055 23.2458 12.01 23.9804 12.01H26.8429L26.8442 12.0035L27.6158 7.38876V7.38617L27.63 7.26928C27.6516 6.99442 27.5873 6.7189 27.4443 6.48088C27.2809 6.20895 27.0258 6.00449 26.7248 5.90421L22.4088 4.4638C22.1057 5.56492 21.5238 6.58001 20.7022 7.40176C19.455 8.64881 17.7639 9.34993 16.0004 9.35C14.2366 9.35 12.5444 8.64887 11.2973 7.40176C10.4757 6.57994 9.89234 5.56495 9.58934 4.4638L5.27463 5.9029C4.97389 6.00325 4.71839 6.20912 4.55508 6.48088C4.41226 6.7188 4.34784 6.99457 4.36934 7.26928L4.38364 7.38617L4.38493 7.38876L5.15513 12.0035L5.15644 12.01L8.02035 12.01C8.75476 12.0101 9.35035 12.6056 9.35035 13.34L9.35035 26.64C9.35035 27.3684 9.9519 27.97 10.6804 27.97H21.3204C21.6729 27.9699 22.0113 27.8297 22.2607 27.5803C22.51 27.3309 22.6504 26.9927 22.6504 26.64L22.6504 13.34ZM25.3104 26.64C25.3104 27.6981 24.8895 28.7128 24.1414 29.4611C23.3932 30.2093 22.3785 30.6299 21.3204 30.63H10.6804C8.48282 30.63 6.69035 28.8376 6.69035 26.64L6.69035 14.67L5.16033 14.67V14.6687C4.5288 14.6696 3.91713 14.4474 3.4355 14.0388C2.95434 13.6305 2.63646 13.0637 2.5341 12.4412L2.53151 12.4425L1.76131 7.82907L1.71714 7.47579C1.65282 6.65148 1.8468 5.82435 2.27564 5.11062C2.76583 4.29487 3.5314 3.68144 4.43429 3.38058L10.2595 1.43884L10.4128 1.39727C10.7747 1.32298 11.1548 1.40185 11.4583 1.62067C11.805 1.87066 12.0104 2.27257 12.0104 2.7C12.0104 3.75821 12.431 4.77279 13.1793 5.52106C13.9275 6.26924 14.9422 6.69 16.0004 6.69C17.0585 6.68993 18.0732 6.26926 18.8214 5.52106C19.5695 4.7728 19.9904 3.75814 19.9904 2.7L19.9994 2.54154C20.0434 2.17471 20.2388 1.83949 20.5423 1.62067C20.8892 1.37078 21.3356 1.30366 21.7412 1.43884L27.5664 3.38058L27.8976 3.50786C28.6557 3.83802 29.2961 4.39682 29.725 5.11062C30.2151 5.92636 30.3976 6.89069 30.2395 7.82907L29.4679 12.4347L29.4693 12.436C29.3679 13.0607 29.0465 13.6293 28.5639 14.0388C28.0822 14.4474 27.4707 14.6697 26.8391 14.6687V14.67H25.3104L25.3104 26.64Z" fill="#004D00"/>
</svg>
