<svg width="32" height="32" viewBox="0 0 32 32" fill="none" xmlns="http://www.w3.org/2000/svg">
<path d="M27.9691 12.015C27.9691 11.2805 27.3737 10.685 26.6391 10.685L5.35914 10.685C4.62461 10.685 4.02914 11.2805 4.02914 12.015L4.02914 26.645C4.02914 27.3796 4.62461 27.975 5.35914 27.975L26.6391 27.975C27.3737 27.975 27.9691 27.3796 27.9691 26.645L27.9691 12.015ZM30.6291 26.645C30.6291 28.8487 28.8428 30.635 26.6391 30.635L5.35914 30.635C3.15553 30.635 1.36914 28.8487 1.36914 26.645L1.36914 12.015C1.36914 9.81141 3.15553 8.02502 5.35914 8.02502L26.6391 8.02502C28.8428 8.02502 30.6291 9.81141 30.6291 12.015L30.6291 26.645Z" fill="#004D00"/>
<path d="M21.8102 1.64376C22.3325 1.21769 23.1026 1.24774 23.5895 1.73467C24.0766 2.2216 24.1066 2.99168 23.6805 3.51407L23.5895 3.61538L16.9395 10.2654C16.4202 10.7848 15.5783 10.7848 15.0589 10.2654L8.40887 3.61538L8.31795 3.51407C7.89189 2.99168 7.92193 2.2216 8.40887 1.73467C8.8958 1.24774 9.66588 1.21769 10.1883 1.64376L10.2896 1.73467L15.9992 7.44432L21.7089 1.73467L21.8102 1.64376Z" fill="#004D00"/>
</svg>
