<svg width="16" height="16" viewBox="0 0 16 16" fill="none" xmlns="http://www.w3.org/2000/svg">
<path d="M12.0206 14.01V12.67C12.0206 12.1369 11.8087 11.6258 11.4318 11.2489C11.102 10.9191 10.6696 10.7155 10.2095 10.6698L10.0106 10.66L5.99063 10.66C5.45754 10.66 4.94644 10.8719 4.56949 11.2489C4.19255 11.6258 3.98063 12.1369 3.98063 12.67L3.98063 14.01C3.98063 14.38 3.68065 14.68 3.31063 14.68C2.9406 14.68 2.64062 14.38 2.64062 14.01L2.64062 12.67C2.64062 11.7815 2.99382 10.9297 3.62207 10.3014C4.25032 9.67322 5.10215 9.32 5.99063 9.32L10.0106 9.32L10.1768 9.32395C11.0048 9.36502 11.7902 9.71249 12.3792 10.3014C13.0074 10.9297 13.3606 11.7815 13.3606 12.67V14.01C13.3606 14.38 13.0607 14.68 12.6906 14.68C12.3206 14.68 12.0206 14.38 12.0206 14.01Z" fill="#004D00"/>
<path d="M10.0104 4.67C10.0104 3.55991 9.11051 2.66 8.00039 2.66C6.89027 2.66 5.99039 3.55991 5.99039 4.67C5.99039 5.78009 6.89027 6.68 8.00039 6.68C9.11051 6.68 10.0104 5.78009 10.0104 4.67ZM11.3504 4.67C11.3504 6.52015 9.85053 8.02 8.00039 8.02C6.15024 8.02 4.65039 6.52015 4.65039 4.67C4.65039 2.81985 6.15024 1.32 8.00039 1.32C9.85053 1.32 11.3504 2.81985 11.3504 4.67Z" fill="#004D00"/>
</svg>
