<svg width="32" height="32" viewBox="0 0 32 32" fill="none" xmlns="http://www.w3.org/2000/svg">
<path d="M2.67969 11.995L2.67969 2.68498C2.67969 1.95045 3.27516 1.35498 4.00969 1.35498C4.74422 1.35498 5.33969 1.95045 5.33969 2.68498L5.33969 11.995C5.33969 12.7234 5.94122 13.325 6.66969 13.325H11.9897C12.3424 13.325 12.6806 13.1848 12.93 12.9353C13.1795 12.6859 13.3197 12.3477 13.3197 11.995L13.3197 2.68498C13.3197 1.95045 13.9151 1.35498 14.6497 1.35498C15.3842 1.35498 15.9797 1.95045 15.9797 2.68498L15.9797 11.995C15.9797 13.0532 15.559 14.0678 14.8108 14.816C14.0625 15.5643 13.0479 15.985 11.9897 15.985H6.66969C4.47216 15.985 2.67969 14.1925 2.67969 11.995Z" fill="#004D00"/>
<path d="M8 29.3L8 2.7C8 1.96546 8.59547 1.37 9.33 1.37C10.0645 1.37 10.66 1.96546 10.66 2.7L10.66 29.3C10.66 30.0346 10.0645 30.63 9.33 30.63C8.59547 30.63 8 30.0346 8 29.3Z" fill="#004D00"/>
<path d="M26.6656 29.3V21.32H24.0056C21.8081 21.32 20.0156 19.5276 20.0156 17.33V9.35C20.0156 7.23357 20.857 5.20443 22.3535 3.70788C23.85 2.21134 25.8792 1.37 27.9956 1.37C28.3483 1.37 28.6866 1.51022 28.9359 1.75965C29.1854 2.00907 29.3256 2.34725 29.3256 2.7L29.3256 29.3C29.3256 30.0346 28.7302 30.63 27.9956 30.63C27.2611 30.63 26.6656 30.0346 26.6656 29.3ZM22.6756 17.33C22.6756 18.0584 23.2772 18.66 24.0056 18.66H26.6656L26.6656 4.20014C25.7534 4.43578 24.9119 4.91097 24.2343 5.5886C23.2365 6.58628 22.6756 7.93904 22.6756 9.35L22.6756 17.33Z" fill="#004D00"/>
</svg>
